# xmcd CD database file
#
# Track frame offsets:
#	150
#	20154
#	42376
#	70051
#	99564
#	134326
#	158601
#	175939
#	215996
#	239964
#	259464
#	271214
#
# Disc length: 3791 seconds
#
# Revision: 1
# Processed by: cddbd v1.5.2PL0 Copyright (c) Steve Scherf et al.
# Submitted via: CDex 1.70beta2
#
DISCID=bc0ecd0c
DTITLE=Various Artist - CD 3 - Jazz für Tagträumer
DYEAR=2004
DGENRE=Jazz
TTITLE0=Keith Jarrett - Expectations
TTITLE1=Tuck and Patti - Heaven down here
TTITLE2=Keiko Lee - New York state of mind
TTITLE3=Bill Evans, Herbie Lewis, Walter Perkins - In a sentimental mood
TTITLE4=George Benson - Willow weep for me
TTITLE5=Judy Niemack - Sometime ago
TTITLE6=Steve Tyrell - Someone to watch over me
TTITLE7=Kenny Burell - God bless the child
TTITLE8=Miles Davis - Old Folks
TTITLE9=Carmen McRae - Lover Man
TTITLE10=Jim Hall - Unfinished Business
TTITLE11=Aretha Franklin - But Beautiful
EXTD=YEAR: 2004
EXTT0=
EXTT1=
EXTT2=
EXTT3=
EXTT4=
EXTT5=
EXTT6=
EXTT7=
EXTT8=
EXTT9=
EXTT10=
EXTT11=
PLAYORDER=
